/* XPM */
static char *robview[] = {
/* columns rows colors chars-per-pixel */
"64 64 77 1 ",
"  c #181810",
". c #211818",
"X c #212118",
"o c #292121",
"O c #292921",
"+ c gray16",
"@ c #312929",
"# c #313129",
"$ c #313131",
"% c #393131",
"& c #393931",
"* c #423939",
"= c #424239",
"- c gray26",
"; c #4A4242",
": c #4A4A42",
"> c #52524A",
", c gray32",
"< c #5A5252",
"1 c #5A5A52",
"2 c #5A5A5A",
"3 c #635A5A",
"4 c #63635A",
"5 c gray39",
"6 c #6B6363",
"7 c #6B6B63",
"8 c gray42",
"9 c #736B6B",
"0 c #73736B",
"q c gray45",
"w c #7B7373",
"e c #7B7B7B",
"r c #847B7B",
"t c #84847B",
"y c #6BA5BD",
"u c #0894DE",
"i c #1094D6",
"p c #109CDE",
"a c #2194CE",
"s c #29A5DE",
"d c #4AADDE",
"f c #6BB5DE",
"g c #848484",
"h c #8C8484",
"j c gray55",
"k c #948C8C",
"l c #94948C",
"z c #8C9494",
"x c gray58",
"c c #9C9494",
"v c gray61",
"b c #A59C9C",
"n c #9CA5A5",
"m c #94ADBD",
"M c #A5A5A5",
"N c #ADA5A5",
"B c gray68",
"V c #B5ADAD",
"C c #A5ADB5",
"Z c #ADBDBD",
"A c gray71",
"S c #BDB5B5",
"D c gray74",
"F c #C6BDBD",
"G c #C6C6BD",
"H c #84ADC6",
"J c #94C6DE",
"K c #C6C6C6",
"L c #CECEC6",
"P c #CECECE",
"I c #D6CECE",
"U c gray84",
"Y c #DED6D6",
"T c #DEDED6",
"R c #D6DEDE",
"E c gray87",
"W c None",
/* pixels */
"WWWWWWWWWWWWWWWWWWWWWWWWWWWWWWWWWWWWWWWWWWWWWWWWWWWWWWWWWWWWWWWW",
"WWWWWWWWWWWWWWWWWWWWWWWWWWWWWWWWWWWWWWWWWWWWWWWWWWWWWWWWWWWWWWWW",
"WWWWWWWWWWWWWWWWWWWWWWWWWWWWWWWWWWWWWWWWWWWWWWWWWWWWWWWWWWWWWWWW",
"WWWWWWWWWWWWWWWWWWWWWWWWWWWWWWWWWWWWWWWWWWWWWWWWWWWWWWWWWWWWWWWW",
"WWWWWWWWWWWWWWWWWWWWWWWWWWWWWh4--4hWWWWWWWWWWWWWWWWWWWWWWWWWWWWW",
"WWWWWWWWWWWWWWWWWWWWWWWWh4-<59rggrq83:,jWWWWWWWWWWWWWWWWWWWWWWWW",
"WWWWWWWWWWWWWWWWWWWWWk-,txBMBNBMBMBNBMbg3-hWWWWWWWWWWWWWWWWWWWWW",
"WWWWWWWWWWW5WWWWWWWk:tMBNBMBMBMBNBMBMBMBNBg=wWWWWWWW5WWWWWWWWWWW",
"WWWWWWWWWW>&>WWWWW=rBMBMBMBNBMBMBMBMBNBMBMBNz<hWWWW>&>WWWWWWWWWW",
"WWWWWWWWWW$.@>WW86BMBMBNBMBMBMBNBMBNBMBMBMBMBMj9WW>@.$WWWWWWWWWW",
"WWWWWWWWW8..X.O%xNBMBMBMBMBNBMBMBMBMBMBNBMBNBMBj=@. .X8WWWWWWWWW",
"WWWWWWWWW@X...=MBMBMBNBMBASDDDKKFKDDDDVBBMBMBMBNB;X...#WWWWWWWWW",
"WWWWWWWW:...X-BMBBAFKUUEEEEEEEEEEEEEEEEETUUKDABNBM-o X.:WWWWWWWW",
"WWWWWWWW@. X-bDPUEEEEEEEEEfddddJTEEEEETEEEEEEETUPDv;X..+WWWWWWWW",
"WWWWWWW%..XvUEEEETEEEEETEEsuipufEEETEEEEEEEEEEEEETETx. .%WWWWWWW",
"WWWWWW-o .8EEEETEPxkzlxjxlzjzxkREEEEEETEEEEETEEEEEEEE7..X-WWWWWW",
"WWWWWW%.X*UEEEEEELgtgrggrggrgggTEEEEEEETEEEEEEETEEEEEU;..#WWWWWW",
"WWWWW4..XKRTEEEEELggrgggegggrgtREEEETEEEEEEETEEEEEEETEGo .5WWWWW",
"WWWWW#..qEEEEEETEPgrggeggtgtggeEEEEEEETEEEEEEETEEEEEEEE9X.+WWWWW",
"WWWW-..OPEEEETEEEPtggeggtggegggETEEEEEEETEEEEEEETEEEEETPo.X-WWWW",
"WWW-O..8EEETEEEEETPKPPLPKPPKPLKEEEEEETEEEEEEETEEEEEEEEET5..O-WWW",
"WWW$.XXPEEEEETEEEEEEEEEEEEEEEEEEEEEEEETEEEEEEETEEEEETEEEKX..$WWW",
"WW-X..2EETEEEEEEETEEEEETEEEEETEEEEETEEEEEEETEEEEEEEEETEEE:..X-WW",
"WW%. .MTEEEEEETEEEEEEEEETEEEEEEEETEEEEEETEEEEEEETEEEEEEEThX..#WW",
"W1..XXPEEEEEEEETEEEEETEEPyyPYEEEEEEEETEEEEEEETEEEEEEETEEEK..X.,W",
"WoX..&EEEEETEEEEEEETEEEEKaiFEEEEETEEEEEEETEEEEEEETEEEEEEEU#.. +W",
"W5$.X8EEEEEETEEEEEEEETUIDaaKUUEEEEETEEEEEEETEEEEEEETEEEEET<X.$5W",
"WWWq@vTEEEEEEETEEEEEEEManaabanEEETEEEEEETEEEEEEETEEEEEEEEEg#qWWW",
"WWWWMAETEEEEEEETEEEEETvivaivivEEEEEEETEEEEEEETEEEEEEETEEEEMNWWWW",
"WWWWvGEEEEEETEEEEEEEEECmDHHZmDTEEEEEEETEEEEEEETEEEEEEETEEEAMWWWW",
"WWWWjPTEEEEEEETEEEEETEETEETEEEETEEEEEEETEEEEEEETEEEEEEETEEGjWWWW",
"WWWWgIEEEEETEEEEEEEEETEEEEEEETEEEEEETEEEEEEETEEEEEEETEEEEEK2WWWW",
"WWWWgTEEEEEETEEEEETEEEEERYUUUUUUPUUUUUUTEEEEEETEEEEEEETEEEPgWWWW",
"WWWWkREETEEEEYUPKKDAAABBNBBMBMBNBMBMBMBNMBBAASDKKPPUEEETEEUjWWWW",
"WWWWMKLKKDABBBMBMBMBMBNBMBMBNBMBMBMBNBMBBMBMBNBMBMBNBBADKPDMWWWW",
"WWWW95BNBMBNMBMBMBNBMBMBMBNBMBMBMBNMBMBMBNBMBMBMBNBMBMBNBM89WWWW",
"WWWWW1MBMBMBMBNBMBMBMBNBMBMBMBMBNBMBMBNBMBMBNBMBMBMBMBNBMB1WWWWW",
"WWWWW;MBNBMBNBMBMBNBMBMBMBNMBNBMBMBNBMBMBMBNBMBMBMBNBMBMBM:WWWWW",
"WWWWW4cBMBMBMBMBNMBMBNBMBMBBMBMBMBMBMBMBNBMBMBMBNBMBMBMBMM,WWWWW",
"WWWWW4rBMBMBNBMBMBNBMBMBNBMBMBMBNBMBNBMBMBMBMBNBMBMBMBNBMr4WWWWW",
"WWWWWW>MBMBNBMBMBMBMBMBMBMBMBNBMBMBMBMBNBMBNBMBMBMBNBMBMB4WWWWWW",
"WWWWWW;BMBMBMBMBNBMBNBMBNBMBMBMBNBMBNBMBMBMBMBMBMBNBMBMBN-WWWWWW",
"WWWWWW4gMBNBMBNBMBMBMBMBMBMBNBMBMBMBMBMBMBNBMBNBMBMBMBNBg4WWWWWW",
"WWWWWWW:BMBMBMBMBMBNBMBNBMBMBMBNBMBNBMBNBMBMBMBMBNBMBMBM;WWWWWWW",
"WWWWWWW4eBMBNBMBNBMBMBMBMBNBMBMBMBNBMBMBMBMBNBMBMBMBMBNj4WWWWWWW",
"WWWWWWWW;MBMBMBMBMBMBNBMBMBMBNBMBMBMBMBMBNBMBMBNBMBNBMB,WWWWWWWW",
"WWWWWWWWW6BMBNBMBMBNBMBMBNBMBMBMBNMBNBMBMBMBMBNBMBMBMBheWWWWWWWW",
"WWWWWWWWW7xNBMBMBNBMBMBNBMBMBNBMBMBMBMBNBMBNBMBMBMBNBj0WWWWWWWWW",
"WWWWWWWWWW;BMBMBNBMBMBMBMBMBNBMBNBMBNBMBMBMBMBMBMBNBM4WWWWWWWWWW",
"WWWWWWWWWWW7MBNBMBMBMBNBMBNBMBMBMBMBMBMBMBNBMBNBMBMBeWWWWWWWWWWW",
"WWWWWWWWWWWW3xMBMBMBNBMBMBMBMBMBNBMBNBMBNMBMBMBMBNx,WWWWWWWWWWWW",
"WWWWWWWWWWWWW<BMBBMBMBMBNBMBMBNBMBMBMBMBMBBMBNBMBM3WWWWWWWWWWWWW",
"WWWWWWWWWWWWWWtMBMBNBMBMBMBNBMBMBMBNBMBNBMBNBMBMB6WWWWWWWWWWWWWW",
"WWWWWWWWWWWWWWW5kMBMBMBNBMBMBMBMBNBMBMBMBMBMBMBk:WWWWWWWWWWWWWWW",
"WWWWWWWWWWWWWWWW9jNBMBMBMBNBMBNBMBMBMBNBMBNBMB68WWWWWWWWWWWWWWWW",
"WWWWWWWWWWWWWWWWW9,kBMBNBMBMBMBMBMBMBNBMBMBMr-WWWWWWWWWWWWWWWWWW",
"WWWWWWWWWWWWWWWWWWWw-gBMBMBMBNBMBNBMBMBMBNe:9WWWWWWWWWWWWWWWWWWW",
"WWWWWWWWWWWWWWWWWWWWW<O:rnNBMBMBMBMBNBxg*O2WWWWWWWWWWWWWWWWWWWWW",
"WWWWWWWWWWWWWWWWWWWWW;..Xo$;20rggrq1-@OX..;WWWWWWWWWWWWWWWWWWWWW",
"WWWWWWWWWWWWWWWWWWWWW;..X.. X.oXoX........;WWWWWWWWWWWWWWWWWWWWW",
"WWWWWWWWWWWWWWWWWWWWW;.. .X....X..X..X X..;WWWWWWWWWWWWWWWWWWWWW",
"WWWWWWWWWWWWWWWWWWWWW;XoXo.XoXX.XoXXX.oXX.;WWWWWWWWWWWWWWWWWWWWW",
"WWWWWWWWWWWWWWWWWWWWW5;;;;;;;;;;;;;;;;;;;;5WWWWWWWWWWWWWWWWWWWWW",
"WWWWWWWWWWWWWWWWWWWWWWWWWWWWWWWWWWWWWWWWWWWWWWWWWWWWWWWWWWWWWWWW"
};
